<mxfile host="app.diagrams.net" modified="2023-04-03T05:31:04.279Z" agent="Mozilla/5.0 (Macintosh; Intel Mac OS X 10_15_7) AppleWebKit/537.36 (KHTML, like Gecko) Chrome/111.0.0.0 Safari/537.36" version="21.1.2" etag="pvUK_XD56q_YWRan14MD" type="github">
  <diagram name="Page-1" id="ymr1bzFOps8JS00qnj6u">
    <mxGraphModel>
      <root>
        <mxCell id="0" />
        <mxCell id="1" parent="0" />
      </root>
    </mxGraphModel>
  </diagram>
</mxfile>
